<svg xmlns="http://www.w3.org/2000/svg" viewBox="0 0 190 189" width="190" height="189">
	<defs>
		<clipPath clipPathUnits="userSpaceOnUse" id="cp1">
			<path d="M0 1L190 1L190 189L0 189Z" />
		</clipPath>
	</defs>
	<style>
		tspan { white-space:pre }
		.shp0 { fill: #ff2e17 } 
	</style>
	<g id="Page 1" clip-path="url(#cp1)">
		<path id="Path 1" class="shp0" d="M180.57 57.45C176.36 47.77 170.59 38.93 163.55 31.26C162.26 33.78 160.94 36.3 159.6 38.82C164.76 44.83 169.09 51.56 172.44 58.84C175.12 58.36 177.83 57.91 180.57 57.45ZM180.02 87.8C180.21 90.12 180.33 92.47 180.33 94.84C180.33 142.42 141.75 181 94.16 181C92.59 181 91.03 180.95 89.48 180.87C89.75 182.01 89.94 183.22 89.92 184.55C89.9 186.06 89.6 187.5 89.11 188.86C90.78 188.95 92.47 189 94.16 189C146.09 189 188.33 146.76 188.33 94.84C188.33 90.66 188.03 86.55 187.5 82.52C185.12 84.43 182.62 86.18 180.02 87.8ZM8 94.84C8 47.25 46.58 8.67 94.16 8.67C109.89 8.67 124.61 12.9 137.3 20.26C139.47 18.54 141.72 16.79 144.02 15.01C129.55 5.94 112.47 0.67 94.16 0.67C42.24 0.67 0 42.91 0 94.84C0 134.45 24.6 168.4 59.31 182.29C58.51 179.29 58.19 176.15 58.18 173.12C28.57 159.49 8 129.57 8 94.84Z" />
		<path id="Path 2" fill-rule="evenodd" class="shp0" d="M77.54 187.67C67.2 187.33 66.85 171.79 69.61 162.56C52.58 142.9 73.74 115.92 82.83 100.43C88.18 91.3 92.16 80.24 97.37 72.68C110.38 53.77 139.31 31.13 154.2 19.81L158.17 19.81C140.5 55.02 120.95 88.33 92.08 112.33C97.66 120.83 104.82 120.54 106.62 130.83C110.16 151.16 93.02 165.04 77.54 170.49C74.77 178.46 84.08 184.21 77.54 187.67ZM89 98C89 100.86 91.31 103.17 94.16 103.17C97.02 103.17 99.33 100.86 99.33 98C99.33 95.15 97.02 92.83 94.16 92.83C91.31 92.83 89 95.15 89 98ZM97.37 132.16C87.59 116.76 69.86 132.66 73.57 150.66C85 163.69 97.89 146.99 97.37 132.16ZM134.38 75.32C153.65 73.01 171.06 68.83 189.89 66.07C173.06 87.57 139.83 92.67 111.91 103.08C120.31 94.74 130.11 87.79 134.38 75.32Z" />
		<path id="Path 3" fill-rule="evenodd" class="shp0" d="M72.25 76.64C79.99 88.44 75.85 98.73 68.29 108.36C41.52 112.59 16.22 105.11 24.67 80.61C30.43 63.9 62.47 61.72 72.25 76.64ZM64.32 84.57C61.02 73.02 25 73.47 35.24 95.15C46.13 100.64 68.68 99.84 64.32 84.57Z" />
	</g>
</svg>