<svg xmlns="http://www.w3.org/2000/svg" viewBox="0 0 189 184" width="189" height="184">
	<defs>
		<clipPath clipPathUnits="userSpaceOnUse" id="cp1">
			<path d="M0 0L188 0L188 184L0 184Z" />
		</clipPath>
	</defs>
	<style>
		tspan { white-space:pre }
		.shp0 { fill: #826550 } 
	</style>
	<g id="Page 1" clip-path="url(#cp1)">
		<path id="Path 1" fill-rule="evenodd" class="shp0" d="M94.16 16.36C104.22 16.36 112.37 24.52 112.37 34.58C112.37 44.63 104.22 52.79 94.16 52.79C84.11 52.79 75.95 44.63 75.95 34.58C75.95 24.52 84.11 16.36 94.16 16.36ZM140.55 58.42L140.55 67.36C140.55 70.46 138.02 73 134.92 73L133.26 73L133.26 163.79L134.92 163.79C138.01 163.79 140.55 166.32 140.55 169.42L140.55 178.36C140.55 181.46 138.02 184 134.92 184L53.41 184C50.31 184 47.78 181.47 47.78 178.36L47.78 169.42C47.78 166.32 50.31 163.79 53.41 163.79L55.07 163.79L55.07 73L53.41 73C50.31 73 47.78 70.46 47.78 67.36L47.78 58.42C47.78 55.32 50.31 52.79 53.41 52.79L134.92 52.79C138.02 52.79 140.55 55.32 140.55 58.42ZM121 136.84L94.05 163.79L121 163.79L121 136.84ZM67.32 99.4L93.72 73L67.32 73L67.32 99.4ZM121 76.2L67.32 129.88L67.32 160.03L121 106.35L121 76.2ZM188.33 94.18C188.33 125.03 173.49 152.42 150.55 169.59L150.55 169.42C150.55 166.41 149.68 163.61 148.2 161.23C167.77 145.42 180.32 121.24 180.32 94.18C180.32 46.67 141.67 8.02 94.16 8.02C46.65 8.02 8 46.67 8 94.18C8 121.24 20.55 145.42 40.13 161.23C38.65 163.62 37.78 166.41 37.78 169.42L37.78 169.6C14.84 152.42 0 125.04 0 94.18C0 42.18 42.16 0.02 94.16 0.02C146.17 0.02 188.32 42.18 188.33 94.18Z" />
	</g>
</svg>