<svg xmlns="http://www.w3.org/2000/svg" viewBox="0 0 189 179" width="189" height="179">
	<defs>
		<clipPath clipPathUnits="userSpaceOnUse" id="cp1">
			<path d="M0 1L188 1L188 178L0 178Z" />
		</clipPath>
	</defs>
	<style>
		tspan { white-space:pre }
		.shp0 { fill: #826550 } 
	</style>
	<g id="Page 1" clip-path="url(#cp1)">
		<path id="Path 1" class="shp0" d="M174.38 45.61C173.24 49.08 172.12 52.56 171.02 56.05C176.96 67.74 180.32 80.94 180.32 94.92C180.32 123.41 166.42 148.69 145.05 164.39C147.38 165.8 149.49 167.55 151.33 169.72C173.81 152.51 188.32 125.42 188.32 94.92C188.32 76.84 183.21 59.95 174.38 45.61ZM19.03 141.43C19.92 141.43 20.82 141.46 21.72 141.48C13.05 128.05 8 112.07 8 94.92C8 47.41 46.65 8.76 94.16 8.76C107.72 8.76 120.56 11.92 131.98 17.53C133.42 15.2 135.04 13.02 136.86 11.01C124.04 4.47 109.54 0.76 94.16 0.76C42.16 0.76 0 42.92 0 94.92C0 111.97 4.55 127.94 12.47 141.73C14.73 141.5 16.95 141.43 19.03 141.43Z" />
		<path id="Path 2" fill-rule="evenodd" class="shp0" d="M145.05 178L55.61 178C62.86 168.59 78.1 167.17 93.76 166.16L93.76 126.7C86.55 123.83 74.17 126.12 64.82 125.39C58.06 139.67 54.33 156.99 41.14 164.84C28.71 163.25 9.3 168.62 3 160.9L3 155.64C9.87 148.48 28.33 152.91 41.14 151.69C48.33 145.72 53.14 137.38 55.61 126.7C45.6 124.43 41.31 116.44 42.46 103.02C46.22 97.58 53.13 95.28 62.19 95.13C63.36 64.76 96.37 56.59 127.96 64.88C132.98 41.84 135.69 16.5 156.89 9.63L158.2 9.63C163.85 11.44 170.01 12.73 171.36 18.84L171.36 24.1C158.58 57.37 150.88 95.69 134.53 125.38C127.34 127.41 117.28 126.55 108.22 126.7C105.16 136.79 107.78 152.56 106.91 164.84C120.11 168.75 138.54 167.41 145.05 178ZM129.27 104.34C125.6 98.36 126.84 87.47 126.64 78.03C106.07 71.75 76.71 71.72 75.34 95.13C95.11 95.54 115.18 102.63 129.27 104.34Z" />
	</g>
</svg>